<svg xmlns="http://www.w3.org/2000/svg" viewBox="0 0 400 300" data-imageid="conversation-outline" imageName="Conversation" class="illustrations_image" style="width: 136px;"><g id="_285_conversation_outline" data-name="#285_conversation_outline"><path d="M176.2,241.59v-24.1a17.7,17.7,0,0,0-17.71-17.7H131.22a17.7,17.7,0,0,0-17.71,17.7v24.1Z" fill="#8c2155" class="target-color"/><path d="M176.2,242.59H113.51a1,1,0,0,1-1-1v-24.1a18.72,18.72,0,0,1,18.71-18.7H158.5a18.72,18.72,0,0,1,18.7,18.7v24.1A1,1,0,0,1,176.2,242.59Zm-61.69-2H175.2v-23.1a16.72,16.72,0,0,0-16.7-16.7H131.22a16.72,16.72,0,0,0-16.71,16.7Z" fill="#093f68"/><path d="M128.45,242.59a1,1,0,0,1-1-1v-23a1,1,0,0,1,2,0v23A1,1,0,0,1,128.45,242.59Z" fill="#093f68"/><path d="M171.41,242.59a1,1,0,0,1-1-1v-23a1,1,0,0,1,2,0v23A1,1,0,0,1,171.41,242.59Z" fill="#093f68"/><path d="M150.8,207.59c.23,11.29.23,22.53,0,33.33" fill="#8c2155" class="target-color"/><path d="M150.8,241.92h0a1,1,0,0,1-1-1c.24-10.8.24-22,0-33.29a1,1,0,0,1,1-1,1,1,0,0,1,1,1c.24,11.32.24,22.55,0,33.38A1,1,0,0,1,150.8,241.92Z" fill="#093f68"/><path d="M144.76,195.79h11.05a0,0,0,0,1,0,0v6.94a4.87,4.87,0,0,1-4.87,4.87h-1.32a4.87,4.87,0,0,1-4.87-4.87v-6.94A0,0,0,0,1,144.76,195.79Z" fill="#ffc9b0"/><path d="M150.94,208.59h-1.32a5.87,5.87,0,0,1-5.86-5.86v-6.94a1,1,0,0,1,1-1h11.05a1,1,0,0,1,1,1v6.94A5.87,5.87,0,0,1,150.94,208.59Zm-5.18-11.8v5.94a3.86,3.86,0,0,0,3.86,3.86h1.32a3.87,3.87,0,0,0,3.87-3.86v-5.94Z" fill="#093f68"/><path d="M141.33,123.4a21.88,21.88,0,0,1,6.19,2,17.29,17.29,0,0,0-5.2-5.79c8.25.06,16.82,1.72,23.36,6.76,11.17,8.6,8,20.42,6.23,32.29-.93,6.08-2.27,12.09-3.39,18.13L116.8,178s-1.75-12.54-2-23.06a67.85,67.85,0,0,1,.51-7c.22-2.93.08-2.61-2.79-3.89-.45-.19-1-.45-1.08-.92-.41-1.41,2.4-1.33,3.11-2.62a12.91,12.91,0,0,1-5.19-1.19,21,21,0,0,1,17.05-9.17l-4.06-2.59a1.52,1.52,0,0,1-.76-.84c-.13-.68.68-1.13,1.34-1.34C128.85,123.51,135.33,122.35,141.33,123.4Z" fill="#725858"/><path d="M116.8,179a1,1,0,0,1-1-.86c0-.12-1.77-12.72-2-23.18a37.12,37.12,0,0,1,.3-4.89c.08-.72.15-1.44.21-2.17a6.07,6.07,0,0,0,0-1.84,4.87,4.87,0,0,0-1.33-.69l-.87-.37a2.63,2.63,0,0,1-1.63-1.56,1.88,1.88,0,0,1,1.11-2.27,13.83,13.83,0,0,1-2.65-.91.94.94,0,0,1-.54-.64,1,1,0,0,1,.13-.82,22,22,0,0,1,14.83-9.38l-1.55-1a2.39,2.39,0,0,1-1.2-1.49c-.21-1.07.57-2,2-2.48,7.17-2.27,13.51-2.94,18.85-2h0a24.94,24.94,0,0,1,3.28.81,16.14,16.14,0,0,0-3-2.75,1,1,0,0,1-.38-1.12,1.06,1.06,0,0,1,1-.7c10,.08,18.06,2.42,24,7,10.65,8.19,8.85,19.32,7.11,30.08-.17,1-.35,2.1-.51,3.15-.6,4-1.4,8-2.18,11.93-.41,2.08-.82,4.15-1.21,6.23a1,1,0,0,1-1,.82L116.82,179Zm-4.29-36.05a3.83,3.83,0,0,0,.43.22l.85.37c2.5,1.06,2.77,1.53,2.53,4.51-.06.75-.13,1.49-.21,2.23a34.82,34.82,0,0,0-.29,4.64c.19,8.75,1.45,19,1.85,22.07l50-1.09c.34-1.82.7-3.64,1.06-5.46.77-3.87,1.57-7.88,2.17-11.84.16-1.06.33-2.12.5-3.17,1.72-10.65,3.35-20.71-6.35-28.18-5-3.83-11.66-6-19.88-6.46A18.33,18.33,0,0,1,148.4,125a1,1,0,0,1-1.34,1.37,20.68,20.68,0,0,0-5.9-2h0c-5-.89-11-.23-17.91,1.94a2.38,2.38,0,0,0-.54.24l.2.14,4,2.59a1,1,0,0,1,.43,1.12,1,1,0,0,1-1,.72,19.94,19.94,0,0,0-15.5,7.72,12,12,0,0,0,3.65.64,1,1,0,0,1,.85.5,1,1,0,0,1,0,1,4.12,4.12,0,0,1-2.19,1.59C113,142.67,112.7,142.8,112.51,142.91Z" fill="#093f68"/><ellipse cx="173.66" cy="174" rx="7.19" ry="8.03" transform="translate(-3.75 3.82) rotate(-1.25)" fill="#ffc9b0"/><path d="M173.69,183a7.77,7.77,0,0,1-5.72-2.56,9.71,9.71,0,0,1-.28-12.69,7.81,7.81,0,0,1,5.77-2.81c4.49-.09,8.28,3.87,8.39,8.85h0a9.49,9.49,0,0,1-2.23,6.4,7.79,7.79,0,0,1-5.76,2.81ZM173.63,167h-.12a5.77,5.77,0,0,0-4.3,2.11,7.72,7.72,0,0,0,.22,10,5.72,5.72,0,0,0,4.38,1.92,5.86,5.86,0,0,0,4.3-2.11,7.52,7.52,0,0,0,1.74-5h0C179.76,170,177,167,173.63,167Z" fill="#093f68"/><path d="M149.1,200.72c-15.78.34-30.32-18.81-30.65-34.34l3.78,1.35-.37-11s19.65-5.64,16.85-14.77c0,0,5.94,6.76,14.27,6.56,15.31-.38,21.22-4.56,21.22-4.56l.61,28.07C175.14,187.56,164.87,200.38,149.1,200.72Z" fill="#ffc9b0"/><path d="M148.68,201.72c-16.17,0-30.89-19.59-31.23-35.31a1,1,0,0,1,1.33-1l2.4.85-.32-9.51a1,1,0,0,1,.72-1c.13,0,12.55-3.66,15.71-9.49a5,5,0,0,0,.46-4,1,1,0,0,1,1.71-.95c0,.06,5.58,6.22,13.16,6.22H153c14.73-.36,20.6-4.34,20.66-4.38a1,1,0,0,1,1.58.8l.61,28.07a30.43,30.43,0,0,1-7.06,20.71,26.33,26.33,0,0,1-19.63,9Zm-29.17-33.9c1.21,17.21,16.89,31.9,29.23,31.9h.34a24.41,24.41,0,0,0,18.16-8.3,28.41,28.41,0,0,0,6.57-19.36l-.58-26.41c-2.66,1.29-8.95,3.6-20.23,3.87-5.91.17-10.56-2.92-13.06-5a7.74,7.74,0,0,1-.89,2.73c-3.11,5.74-13.29,9.32-16.17,10.24l.35,10.21a1,1,0,0,1-.41.84,1,1,0,0,1-.93.14Z" fill="#093f68"/><ellipse cx="141.31" cy="169.25" rx="2.6" ry="2.6" transform="translate(-3.65 3.11) rotate(-1.25)" fill="#093f68"/><circle cx="166.35" cy="168.7" r="2.6" fill="#093f68"/><path d="M155,176.29a16.26,16.26,0,0,1-2.26-.16,1,1,0,1,1,.3-2,12.78,12.78,0,0,0,3.65,0c0-.88-1-3.48-2.31-5.86a1,1,0,0,1,.4-1.36,1,1,0,0,1,1.35.39c1,1.75,3.13,6,2.38,7.77a1.55,1.55,0,0,1-1,.93A9.67,9.67,0,0,1,155,176.29Z" fill="#093f68"/><path d="M124.14,168.24s-7-4.6-10.53,1.6.23,16.55,11.51,13.27" fill="#ffc9b0"/><path d="M121,184.74a9.25,9.25,0,0,1-7.57-3.48,10.91,10.91,0,0,1-.71-11.92,7,7,0,0,1,4.48-3.55c3.65-.86,7.32,1.52,7.47,1.62a1,1,0,0,1,.28,1.38,1,1,0,0,1-1.38.29s-3.11-2-5.92-1.34a5,5,0,0,0-3.19,2.6A9,9,0,0,0,115,180c2.06,2.62,5.55,3.37,9.82,2.13a1,1,0,0,1,.56,1.92A16,16,0,0,1,121,184.74Z" fill="#093f68"/><path d="M146.63,161.85H135a2,2,0,0,1,0-4h11.62a2,2,0,0,1,0,4Z" fill="#093f68"/><path d="M169.56,161.85H157.94a2,2,0,0,1,0-4h11.62a2,2,0,0,1,0,4Z" fill="#093f68"/><path d="M157.94,183.73h-7s-.4,7,3.79,7.25C157.5,191.15,157.94,183.73,157.94,183.73Z" fill="#093f68"/><path d="M154.85,192h-.15c-4.09-.25-4.9-5.33-4.72-8.29a1,1,0,0,1,1-1h7a1,1,0,0,1,.73.32,1,1,0,0,1,.27.74c0,.59-.4,5.75-2.4,7.52A2.53,2.53,0,0,1,154.85,192ZM152,184.73c.07,1.7.51,5.1,2.84,5.25a.54.54,0,0,0,.4-.17c.86-.76,1.4-3.19,1.63-5.08Zm6,0h0Z" fill="#093f68"/><path d="M250.07,125c-6.52-.75-13.72,1.82-18.86,5.43-7.87,5.52-12,14-12.88,23.37L216,179c-1.15,12.38-4.27,26.29,7.35,34.81,6,4.41,13.63,6,21.06,6.65a71,71,0,0,0,27.51-2.67c7.14-2.28,17.63-6.7,18.65-15.29.56-4.74-2.25-9.14-3.67-13.71-3-9.61.26-20-.41-30.05-.69-10.37-9.55-32.72-23.52-29.08a5.19,5.19,0,0,1-2.15.34,4.41,4.41,0,0,1-2-1.25A15.76,15.76,0,0,0,250.07,125Z" fill="#725858"/><path d="M251.59,221.73c-2.38,0-4.8-.11-7.28-.32-9.43-.79-16.29-3-21.57-6.83-10.78-7.9-9.41-20.43-8.19-31.48.15-1.42.31-2.84.44-4.23l2.34-25.16c1-10.33,5.56-18.67,13.31-24.1,4.65-3.26,12.23-6.44,19.54-5.61h0a16.69,16.69,0,0,1,9.26,4l.17.15A3.37,3.37,0,0,0,261,129a3.21,3.21,0,0,0,1.29-.21l.44-.12A12.9,12.9,0,0,1,273.91,131c8,5.79,13,19.79,13.56,27.68a79.84,79.84,0,0,1-.39,11.89c-.53,6.28-1,12.22.75,17.93.41,1.3.95,2.62,1.47,3.91,1.31,3.24,2.67,6.6,2.24,10.21-.81,6.86-7.32,12.28-19.33,16.12A67.69,67.69,0,0,1,251.59,221.73Zm-3.84-95.86c-6.06,0-12.09,2.66-16,5.38-7.25,5.08-11.56,12.91-12.47,22.64L217,179.06c-.13,1.4-.29,2.82-.44,4.25-1.21,11-2.46,22.44,7.38,29.65,5,3.65,11.51,5.7,20.56,6.46a69.79,69.79,0,0,0,27.12-2.62c11.2-3.58,17.24-8.45,18-14.45.36-3.1-.84-6.08-2.12-9.23-.53-1.32-1.09-2.69-1.52-4.07-1.89-6.08-1.35-12.49-.84-18.68a79,79,0,0,0,.4-11.6c-.5-7.49-5.21-20.76-12.74-26.18a11,11,0,0,0-9.54-2l-.39.11a4.68,4.68,0,0,1-2.18.26,4.87,4.87,0,0,1-2.34-1.35l-.16-.14A14.69,14.69,0,0,0,250,126h0A20.59,20.59,0,0,0,247.75,125.87Z" fill="#093f68"/><path d="M279.66,241.59V218.77A16.77,16.77,0,0,0,262.89,202H237.05a16.91,16.91,0,0,0-7.66,1.86,16.75,16.75,0,0,0-9.1,14.91v22.82Z" fill="#8c2155" class="target-color"/><path d="M279.66,242.59H220.29a1,1,0,0,1-1-1V218.77a17.74,17.74,0,0,1,13.37-17.21,17.32,17.32,0,0,1,4.39-.56h25.84a17.79,17.79,0,0,1,17.77,17.77v22.82A1,1,0,0,1,279.66,242.59Zm-58.37-2h57.37V218.77A15.79,15.79,0,0,0,262.89,203H237.05a15.85,15.85,0,0,0-3.9.49,16.3,16.3,0,0,0-3.31,1.26,15.7,15.7,0,0,0-8.55,14Z" fill="#093f68"/><path d="M260.07,202c-1.24,7.46-6.88,13.11-13.63,13.11-6.59,0-12.12-5.38-13.54-12.58a16.34,16.34,0,0,1,4.15-.53Z" fill="#ffc9b0"/><path d="M246.44,216.11c-7,0-13-5.51-14.52-13.39a1,1,0,0,1,.73-1.16,17.46,17.46,0,0,1,4.4-.56h23a1,1,0,0,1,.76.36,1,1,0,0,1,.23.81C259.71,210.24,253.56,216.11,246.44,216.11ZM234.1,203.28c1.63,6.42,6.59,10.83,12.34,10.83s10.87-4.61,12.41-11.11h-21.8A16,16,0,0,0,234.1,203.28Z" fill="#093f68"/><path d="M265.51,240.85v-21" fill="#8c2155" class="target-color"/><path d="M265.51,241.85a1,1,0,0,1-1-1v-21a1,1,0,0,1,2,0v21A1,1,0,0,1,265.51,241.85Z" fill="#093f68"/><path d="M251.72,204.79v-6.58H241.25v6.58" fill="#ffc9b0"/><path d="M251.72,205.79a1,1,0,0,1-1-1v-5.58h-8.47v5.58a1,1,0,0,1-2,0v-6.58a1,1,0,0,1,1-1h10.47a1,1,0,0,1,1,1v6.58A1,1,0,0,1,251.72,205.79Z" fill="#093f68"/><path d="M215.51,175.23c-.19,4.08,3.37,9.71,8.09,9.93s8.7-2.89,8.9-7-3.47-7.57-8.19-7.79S215.71,171.15,215.51,175.23Z" fill="#ffc9b0"/><path d="M224.08,186.18l-.53,0a9,9,0,0,1-6.64-3.92,11.4,11.4,0,0,1-2.39-7.06,5.37,5.37,0,0,1,3.28-4.89,14.24,14.24,0,0,1,6.56-.89,10.21,10.21,0,0,1,6.58,2.73,7.85,7.85,0,0,1,2.56,6.11C233.28,182.71,229.11,186.18,224.08,186.18Zm-1-14.81a11.06,11.06,0,0,0-4.46.74,3.38,3.38,0,0,0-2.12,3.17h0a9.53,9.53,0,0,0,2,5.76,7.24,7.24,0,0,0,5.14,3.13c4.19.21,7.68-2.5,7.85-6a5.9,5.9,0,0,0-1.94-4.57,8.15,8.15,0,0,0-5.3-2.18Zm-7.58,3.86h0Z" fill="#093f68"/><path d="M245.88,201.65h0a25.82,25.82,0,0,0,27-24.59l.58-12c.3-6.21-8.59-18.27-14.78-18.56,0,0-1.29,5.82-11.28,10.49-7,3.26-16.6,3-25-3.48l-1,21A25.83,25.83,0,0,0,245.88,201.65Z" fill="#ffc9b0"/><path d="M247.13,202.68l-1.3,0a26.86,26.86,0,0,1-25.47-28.13l1-21a1,1,0,0,1,.58-.86,1,1,0,0,1,1,.11c8.68,6.7,18.09,6.13,24,3.36,9.33-4.36,10.71-9.75,10.72-9.81a1,1,0,0,1,1-.77c3.13.15,7.08,2.93,10.57,7.45,2.62,3.38,5.35,8.36,5.17,12.16l-.58,12A26.87,26.87,0,0,1,247.13,202.68Zm-23.85-47.24-.92,19.17a24.85,24.85,0,0,0,23.56,26h0a24.86,24.86,0,0,0,26-23.64l.57-12c.13-2.68-1.73-6.94-4.75-10.84-2.8-3.62-5.92-6.06-8.35-6.58-.78,1.9-3.4,6.5-11.53,10.3A25,25,0,0,1,223.28,155.44Z" fill="#093f68"/><path d="M261.77,167.42h-.12l-11.37-.69a2,2,0,1,1,.24-4l11.37.7a2,2,0,0,1-.12,4Z" fill="#093f68"/><path d="M236,165.9H236l-11.39-.48a2,2,0,0,1,.17-4l11.38.47a2,2,0,0,1-.08,4Z" fill="#093f68"/><path d="M268.21,186.85c4.72.22,11.5-4.92,11.32-9-.3-6.82-7.77-6-10.71-3.6" fill="#ffc9b0"/><path d="M268.53,187.85h-.36a1,1,0,0,1-1-1,1,1,0,0,1,1.05-1c2.44.12,5.72-1.43,8.05-3.74,1.47-1.46,2.28-3,2.22-4.22-.08-2-.85-3.3-2.27-3.94a7.34,7.34,0,0,0-6.81,1.08,1,1,0,1,1-1.26-1.56c2.09-1.69,6-2.66,8.9-1.35,1.48.67,3.29,2.2,3.44,5.69.08,1.8-.92,3.83-2.81,5.71C275.52,185.71,271.87,187.85,268.53,187.85Z" fill="#093f68"/><path d="M274,170.78s3.91-13.09-3.45-24.85-27.51-13.59-35.63-8.9c-12.7,7.32-12.57,16.51-12.57,16.51s-1.77-25.53,28-24C277.16,130.93,282.8,153.35,274,170.78Z" fill="#ffbc0e"/><path d="M274,171.78a1.16,1.16,0,0,1-.37-.07,1,1,0,0,1-.59-1.22c0-.13,3.68-12.81-3.33-24s-26.28-13.19-34.29-8.57c-12,6.91-12.07,15.29-12.07,15.64a1,1,0,0,1-2,.08c0-.43-.66-10.73,6.57-18.09,5-5.13,12.59-7.48,22.44-7,14.79.76,21.75,7.57,25,13.14,4.76,8.2,4.58,19.51-.47,29.54A1,1,0,0,1,274,171.78Zm-27.86-38.2c9.29,0,20.16,3.66,25.26,11.82a31.63,31.63,0,0,1,4.65,16.68c1.54-7,.75-13.94-2.42-19.38-4.29-7.39-12.36-11.59-23.36-12.16-9.24-.47-16.28,1.67-20.9,6.37a20.14,20.14,0,0,0-4.67,7.74,29.74,29.74,0,0,1,9.72-8.49C237.36,134.47,241.57,133.58,246.16,133.58Z" fill="#093f68"/><path d="M244.25,183.19a9.27,9.27,0,0,1-2.64-.32,1.54,1.54,0,0,1-1-.92c-.63-1.61,1.22-5.18,2.37-7.16a1,1,0,0,1,1.73,1,18.17,18.17,0,0,0-2.25,5.23,11.21,11.21,0,0,0,3.26.08,1,1,0,0,1,.25,2C245.92,183.1,245.19,183.19,244.25,183.19Zm-1.77-2h0Z" fill="#093f68"/><ellipse cx="251.51" cy="174.05" rx="2.28" ry="2.28" transform="translate(65.52 416.87) rotate(-87.23)" fill="#093f68"/><ellipse cx="230.02" cy="173.01" rx="2.28" ry="2.28" transform="translate(46.11 394.42) rotate(-87.23)" fill="#093f68"/><path d="M232.58,181.44h-.41a8.82,8.82,0,1,1,.41,0Zm0-14.61a6.36,6.36,0,1,0,.31,0Z" fill="#093f68"/><path d="M254.29,182.49h-.41a8.3,8.3,0,1,1,.8-16.59,8.32,8.32,0,0,1,7.9,8.7h0a8.31,8.31,0,0,1-8.29,7.9Zm0-14.61a6.31,6.31,0,0,0-6.29,6,6.31,6.31,0,0,0,6,6.61,6.23,6.23,0,0,0,4.55-1.63,6.31,6.31,0,0,0-3.94-11Zm7.31,6.66h0Z" fill="#093f68"/><path d="M247,174.83h0l-7.11-.34a1,1,0,0,1,.05-2h0l7.11.34a1,1,0,0,1,.95,1A1,1,0,0,1,247,174.83Z" fill="#093f68"/><path d="M225.42,172.66a1,1,0,0,1-.66-.25L220.91,169a1,1,0,1,1,1.33-1.49l3.85,3.41a1,1,0,0,1-.67,1.75Z" fill="#093f68"/><path d="M261.58,175.54a1,1,0,0,1-1-.73,1,1,0,0,1,.69-1.23l10.95-3.12a1,1,0,0,1,1.24.68,1,1,0,0,1-.69,1.24l-10.95,3.12A.84.84,0,0,1,261.58,175.54Z" fill="#093f68"/><path d="M248.54,186.56l-7.34.36s.56,5.94,3.3,7.5C246.18,195.37,249.07,192.26,248.54,186.56Z" fill="#093f68"/><path d="M245.15,195.59a2.35,2.35,0,0,1-1.15-.3c-3.1-1.76-3.74-7.61-3.8-8.27a1,1,0,0,1,.24-.75,1,1,0,0,1,.71-.35l7.34-.36a1,1,0,0,1,1,.91c.42,4.43-1.12,7.52-2.83,8.62A2.84,2.84,0,0,1,245.15,195.59Zm-2.82-7.72c.32,1.86,1.13,4.81,2.66,5.68.2.11.48,0,.63-.14.88-.57,2-2.55,2-5.8Z" fill="#093f68"/><rect x="265.51" y="233.93" width="14.15" height="7.66" fill="#ffc9b0"/><path d="M279.66,242.59H265.51a1,1,0,0,1-1-1v-7.66a1,1,0,0,1,1-1h14.15a1,1,0,0,1,1,1v7.66A1,1,0,0,1,279.66,242.59Zm-13.15-2h12.15v-5.66H266.51Z" fill="#093f68"/><rect x="220.31" y="233.93" width="9.08" height="7.66" fill="#ffc9b0"/><path d="M229.39,242.59h-9.08a1,1,0,0,1-1-1v-7.66a1,1,0,0,1,1-1h9.08a1,1,0,0,1,1,1v7.66A1,1,0,0,1,229.39,242.59Zm-8.08-2h7.08v-5.66h-7.08Z" fill="#093f68"/><path d="M229.39,234.93a1,1,0,0,1-1-1v-16.6a1,1,0,0,1,2,0v16.6A1,1,0,0,1,229.39,234.93Z" fill="#093f68"/><path d="M193.55,66.17h70.86a8.91,8.91,0,0,1,8.9,8.9V96.65a8.9,8.9,0,0,1-8.9,8.9h-9.69v12.56l-11.07-12.56h-50.1a8.89,8.89,0,0,1-8.9-8.9V75.07A8.9,8.9,0,0,1,193.55,66.17Z" fill="#fff"/><path d="M254.72,119.11a1,1,0,0,1-.75-.34L243.2,106.55H193.55a9.91,9.91,0,0,1-9.9-9.9V75.07a9.91,9.91,0,0,1,9.9-9.9h70.86a9.91,9.91,0,0,1,9.9,9.9V96.65a9.91,9.91,0,0,1-9.9,9.9h-8.69v11.56a1,1,0,0,1-.65.94A1.12,1.12,0,0,1,254.72,119.11ZM193.55,67.17a7.91,7.91,0,0,0-7.9,7.9V96.65a7.9,7.9,0,0,0,7.9,7.9h50.1a1,1,0,0,1,.75.34l9.32,10.58v-9.92a1,1,0,0,1,1-1h9.69a7.9,7.9,0,0,0,7.9-7.9V75.07a7.91,7.91,0,0,0-7.9-7.9Z" fill="#093f68"/><path d="M260.91,80.16H204.23a1,1,0,0,1,0-2h56.68a1,1,0,0,1,0,2Z" fill="#dfeaef"/><path d="M244.11,92.17h-11.6a1,1,0,0,1,0-2h11.6a1,1,0,0,1,0,2Z" fill="#dfeaef"/><path d="M223.5,92.17H204.23a1,1,0,0,1,0-2H223.5a1,1,0,0,1,0,2Z" fill="#dfeaef"/><path d="M204.39,59.19H133.53a8.91,8.91,0,0,0-8.91,8.91V89.68a8.91,8.91,0,0,0,8.91,8.9h9.69v12.56l11.06-12.56h50.11a8.91,8.91,0,0,0,8.9-8.9V68.1A8.91,8.91,0,0,0,204.39,59.19Z" fill="#fff"/><path d="M143.22,112.14a.84.84,0,0,1-.35-.07,1,1,0,0,1-.65-.93V99.58h-8.69a9.92,9.92,0,0,1-9.91-9.9V68.1a9.93,9.93,0,0,1,9.91-9.91h70.86a9.92,9.92,0,0,1,9.9,9.91V89.68a9.91,9.91,0,0,1-9.9,9.9H154.74L144,111.8A1,1,0,0,1,143.22,112.14Zm-9.69-51.95a7.92,7.92,0,0,0-7.91,7.91V89.68a7.92,7.92,0,0,0,7.91,7.9h9.69a1,1,0,0,1,1,1v9.91l9.31-10.57a1,1,0,0,1,.75-.34h50.11a7.92,7.92,0,0,0,7.9-7.9V68.1a7.92,7.92,0,0,0-7.9-7.91Z" fill="#093f68"/><path d="M197.3,72.24H140.61a1,1,0,0,1,0-2H197.3a1,1,0,0,1,0,2Z" fill="#dfeaef"/><path d="M180.5,84.25H140.61a1,1,0,0,1,0-2H180.5a1,1,0,0,1,0,2Z" fill="#dfeaef"/></g></svg>